<?xml version="1.0" encoding="utf-8"?>
<!-- Generator: Adobe Illustrator 22.0.1, SVG Export Plug-In . SVG Version: 6.00 Build 0)  -->
<svg version="1.1" id="Layer_1" xmlns="http://www.w3.org/2000/svg" xmlns:xlink="http://www.w3.org/1999/xlink" x="0px" y="0px"
	 viewBox="0 0 496 496" style="enable-background:new 0 0 496 496;" xml:space="preserve">
<style type="text/css">
	.st0{fill:#FFFFFF;}
</style>
<path class="st0" d="M248,0C142.1,0,56,86.1,56,192v2.1c0,41.6,13.9,82.9,39,116l133.8,176.3c4.5,6,11.7,9.5,19.2,9.5
	s14.7-3.6,19.2-9.5L401,310.2c25.2-33.2,39-74.4,39-116V192C440,86.1,353.9,0,248,0z M424,194.1c0,38.2-12.7,75.9-35.8,106.4
	L254.5,476.8c-3.1,4-9.9,4-12.9,0L107.8,300.5C84.7,270.1,72,232.3,72,194.1V192c0-97,79-176,176-176s176,79,176,176V194.1z"/>
<path class="st0" d="M248,318c-70.6,0-128-57.4-128-128S177.4,62,248,62s128,57.4,128,128S318.6,318,248,318z"/>
<path class="st0" d="M240,384h16v16h-16V384z"/>
<path class="st0" d="M272,384h16v16h-16V384z"/>
<path class="st0" d="M208,384h16v16h-16V384z"/>
</svg>
