<?xml version="1.0" encoding="utf-8"?>
<!-- Generator: Adobe Illustrator 22.0.1, SVG Export Plug-In . SVG Version: 6.00 Build 0)  -->
<svg version="1.1" id="Capa_1" xmlns="http://www.w3.org/2000/svg" xmlns:xlink="http://www.w3.org/1999/xlink" x="0px" y="0px"
	 viewBox="0 0 41.7 41.7" style="enable-background:new 0 0 41.7 41.7;" xml:space="preserve">
<style type="text/css">
	.st0{fill:#68dbd6;}
</style>
<path class="st0" d="M31.6,21.8c0.4-0.4,0.4-1.1,0-1.6c-0.4-0.4-1.1-0.4-1.6,0l-8,8V1.7c0-0.6-0.5-1.1-1.1-1.1s-1.1,0.5-1.1,1.1
	v26.5l-8-8c-0.4-0.4-1.2-0.4-1.6,0c-0.4,0.4-0.4,1.1,0,1.6l10,10c0.4,0.4,1.1,0.4,1.6,0L31.6,21.8z M39.5,29.1
	c0-0.6,0.5-1.1,1.1-1.1s1.1,0.5,1.1,1.1V40c0,0.6-0.5,1.1-1.1,1.1H1.1C0.5,41.1,0,40.6,0,40V29.1C0,28.5,0.5,28,1.1,28
	s1.1,0.5,1.1,1.1v9.8h37.2V29.1z"/>
</svg>
